# xmcd
# 
# Track frame offsets:
#     183
#     24353
#     38943
#     75035
#     89678
#     121230
# 
# Disc length: 2076
# 
# Revision: 4
# Processed by: cddbd v1.5.2PL0 Copyright (c) Steve Scherf et al.
# Submitted via: fre:ac v1.0.17
# 
DISCID=39081a06
DTITLE=김영동 - 김영동의 명상음악(禪 II)
DYEAR=1991
DGENRE=±¹¾Ç
TTITLE0=귀소
TTITLE1=아침의 소리
TTITLE2=여명(수룡음)
TTITLE3=산행
TTITLE4=영가
TTITLE5=영산회상불보살
EXTD=YEAR: 1991
EXTT0=
EXTT1=
EXTT2=
EXTT3=
EXTT4=
EXTT5=
PLAYORDER=
